<svg xmlns="http://www.w3.org/2000/svg" width="20.492" height="15.938" viewBox="0 0 20.492 15.938">
  <path id="ic_import_contacts_24px" d="M19.629,4.969a10.929,10.929,0,0,0-3.26-.469,8.621,8.621,0,0,0-5.123,1.406A8.621,8.621,0,0,0,6.123,4.5,8.621,8.621,0,0,0,1,5.906V19.641a.5.5,0,0,0,.466.469c.093,0,.14-.047.233-.047a11.307,11.307,0,0,1,4.424-1.031,8.621,8.621,0,0,1,5.123,1.406,11.164,11.164,0,0,1,5.123-1.406,9.429,9.429,0,0,1,4.424.984.418.418,0,0,0,.233.047.5.5,0,0,0,.466-.469V5.906A6.337,6.337,0,0,0,19.629,4.969Zm0,12.657a10.758,10.758,0,0,0-3.26-.469,11.164,11.164,0,0,0-5.123,1.406V7.781a11.164,11.164,0,0,1,5.123-1.406,10.758,10.758,0,0,1,3.26.469Z" transform="translate(-1 -4.5)" fill="#ee6425"/>
</svg>
